<svg width="512" height="512" viewBox="0 0 512 512" fill="none" xmlns="http://www.w3.org/2000/svg" xmlns:xlink="http://www.w3.org/1999/xlink" class=""><rect id="«r9»" width="512" height="512" x="0" y="0" rx="128" fill="url(#«ra»)" stroke="#FFFFFF" stroke-width="0" stroke-opacity="100%" paint-order="stroke"></rect><clipPath id="clip"><use xlink:href="#«r9»"></use></clipPath><defs><linearGradient id="«ra»" gradientUnits="userSpaceOnUse" gradientTransform="rotate(45)" style="transform-origin: center center;"><stop stop-color="#F58419"></stop><stop offset="1" stop-color="#F12711"></stop></linearGradient><radialGradient id="«rb»" cx="0" cy="0" r="1" gradientUnits="userSpaceOnUse" gradientTransform="translate(256) rotate(90) scale(512)"><stop stop-color="white"></stop><stop offset="1" stop-color="white" stop-opacity="0"></stop></radialGradient></defs><svg width="352" height="352" viewBox="0 0 96 96" fill="none" xmlns="http://www.w3.org/2000/svg" x="80" y="80" alignment-baseline="middle" style="color: rgb(255, 255, 255);">
<path d="M44 8.2V20.28C30.4 22.24 20 33.92 20 48C20 63.48 32.52 76 48 76C54.28 76 60.08 74.04 64.76 70.48L73.32 79.04C66.4 84.68 57.56 88 48 88C25.92 88 8 70.08 8 48C8 27.24 23.8 10.2 44 8.2ZM87.8 52C87.026 59.8244 83.95 67.2436 78.96 73.32L70.4 64.76C73.16 61.12 75.04 56.8 75.72 52H87.8ZM52 8.2C70.88 10.08 85.92 25.12 87.8 44H75.72C73.96 31.88 64.36 22.28 52 20.28V8.2Z" fill="white"></path>
</svg>
</svg>
